<?xml version="1.0" encoding="UTF-8"?>
<svg xmlns="http://www.w3.org/2000/svg" width="1024" height="1024" viewBox="0 0 1024 1024">
  <defs>
    <linearGradient id="g1" x1="0" x2="0" y1="0" y2="1">
      <stop offset="0" stop-color="#0A84FF"/>
      <stop offset="1" stop-color="#0066D6"/>
    </linearGradient>
  </defs>

  <!-- App Icon background (rounded for preview; iOS will also mask). -->
  <rect x="0" y="0" width="1024" height="1024" rx="256" fill="url(#g1)"/>

  <!-- DL monogram (vector geometry, no fonts). -->
  <g fill="#FFFFFF">
    <!-- D with counter (evenodd makes the inner hole transparent). -->
    <path fill-rule="evenodd" d="
      M 244 280
      H 520
      A 232 232 0 0 1 752 512
      A 232 232 0 0 1 520 744
      H 244
      A 80 80 0 0 1 164 664
      V 360
      A 80 80 0 0 1 244 280
      Z

      M 338 378
      H 520
      A 136 136 0 0 1 656 512
      A 136 136 0 0 1 520 646
      H 338
      Z
    "/>

    <!-- L -->
    <rect x="760" y="280" width="120" height="464" rx="60"/>
    <rect x="760" y="624" width="220" height="120" rx="60"/>
  </g>
</svg>
